<svg version="1.1" id="Layer_1" xmlns="http://www.w3.org/2000/svg" xmlns:xlink="http://www.w3.org/1999/xlink" x="0px" y="0px"
	 width="100%" viewBox="0 0 512 512" enable-background="new 0 0 512 512" xml:space="preserve">
<path fill="#000000" opacity="1.000000" stroke="none" 
	d="
M301.000000,513.000000 
	C200.691025,513.000000 100.882042,513.000000 1.036533,513.000000 
	C1.036533,342.399323 1.036533,171.798660 1.036533,1.098988 
	C171.558990,1.098988 342.118042,1.098988 512.838562,1.098988 
	C512.838562,171.666550 512.838562,342.333252 512.838562,513.000000 
	C442.465302,513.000000 371.982635,513.000000 301.000000,513.000000 
M496.699402,343.848389 
	C499.647430,333.210480 503.117126,322.683136 505.401581,311.904633 
	C507.849060,300.356964 510.335510,288.613922 510.753021,276.883118 
	C511.559845,254.215607 512.262756,231.376205 506.910522,209.049606 
	C503.758240,195.900055 499.734894,182.959305 495.992340,169.176300 
	C489.655487,155.751541 484.059906,141.912079 476.828827,128.987640 
	C461.355255,101.331177 440.637878,78.066948 415.872864,58.166744 
	C392.413330,39.315567 366.390564,25.462631 338.142456,15.612070 
	C318.171448,8.647867 297.467407,4.374228 276.421082,3.250370 
	C259.894745,2.367876 243.147049,2.644809 226.686432,4.292334 
	C207.253906,6.237314 188.316086,11.133155 169.805420,17.840330 
	C134.701004,30.560089 104.196976,50.379253 77.505096,76.169899 
	C69.954521,83.465530 63.221680,91.686363 56.680607,99.932472 
	C39.897068,121.090912 26.935780,144.438812 17.199131,170.259521 
	C15.837511,174.688583 14.412221,179.099243 13.125113,183.549850 
	C7.005839,204.709290 3.001650,226.204269 3.000701,248.321869 
	C3.000266,258.486511 2.242746,268.724701 3.210457,278.796783 
	C4.369416,290.859436 6.478728,302.899689 9.162816,314.725739 
	C11.418329,324.663513 15.087966,334.280304 18.035965,344.777527 
	C23.862162,357.517944 28.803406,370.761932 35.704536,382.890717 
	C48.807583,405.919434 64.666298,427.016144 84.951767,444.391327 
	C93.208496,451.463501 101.423332,458.666199 110.260025,464.963654 
	C133.249374,481.346954 158.401199,493.375854 185.548874,501.349426 
	C202.831833,506.425598 220.443054,509.797607 238.316574,510.772156 
	C252.699753,511.556366 267.240021,510.946655 281.621246,509.817535 
	C293.531586,508.882446 305.435059,506.853668 317.123566,504.308289 
	C341.948334,498.902222 364.938904,488.696198 386.886597,476.035522 
	C405.291382,465.418579 421.725891,452.157562 436.816559,437.373352 
	C445.385193,428.978699 452.993561,419.509399 460.359650,410.001373 
	C475.809021,390.059570 487.545258,368.007477 496.699402,343.848389 
z"/>
<path fill="#F1F2F2" opacity="1.000000" stroke="none" 
	d="
M496.103302,169.924652 
	C499.734894,182.959305 503.758240,195.900055 506.910522,209.049606 
	C512.262756,231.376205 511.559845,254.215607 510.753021,276.883118 
	C510.335510,288.613922 507.849060,300.356964 505.401581,311.904633 
	C503.117126,322.683136 499.647430,333.210480 495.889526,343.968079 
	C494.413574,344.067169 493.747528,344.028564 493.081451,344.028564 
	C334.764832,344.030365 176.448181,344.034821 18.131550,344.039215 
	C15.087966,334.280304 11.418329,324.663513 9.162816,314.725739 
	C6.478728,302.899689 4.369416,290.859436 3.210457,278.796783 
	C2.242746,268.724701 3.000266,258.486511 3.000701,248.321869 
	C3.001650,226.204269 7.005839,204.709290 13.125113,183.549850 
	C14.412221,179.099243 15.837511,174.688583 17.845190,170.402283 
	C19.818373,170.615799 21.145491,170.748474 22.472618,170.748550 
	C178.777344,170.757874 335.082062,170.759796 491.386780,170.722885 
	C492.959015,170.722519 494.531128,170.202225 496.103302,169.924652 
z"/>
<path fill="#ED1C24" opacity="1.000000" stroke="none" 
	d="
M496.047821,169.550476 
	C494.531128,170.202225 492.959015,170.722519 491.386780,170.722885 
	C335.082062,170.759796 178.777344,170.757874 22.472618,170.748550 
	C21.145491,170.748474 19.818373,170.615799 18.194126,170.234772 
	C26.935780,144.438812 39.897068,121.090912 56.680607,99.932472 
	C63.221680,91.686363 69.954521,83.465530 77.505096,76.169899 
	C104.196976,50.379253 134.701004,30.560089 169.805420,17.840330 
	C188.316086,11.133155 207.253906,6.237314 226.686432,4.292334 
	C243.147049,2.644809 259.894745,2.367876 276.421082,3.250370 
	C297.467407,4.374228 318.171448,8.647867 338.142456,15.612070 
	C366.390564,25.462631 392.413330,39.315567 415.872864,58.166744 
	C440.637878,78.066948 461.355255,101.331177 476.828827,128.987640 
	C484.059906,141.912079 489.655487,155.751541 496.047821,169.550476 
z"/>
<path fill="#21409A" opacity="1.000000" stroke="none" 
	d="
M18.083757,344.408386 
	C176.448181,344.034821 334.764832,344.030365 493.081451,344.028564 
	C493.747528,344.028564 494.413574,344.067169 495.540894,344.157349 
	C487.545258,368.007477 475.809021,390.059570 460.359650,410.001373 
	C452.993561,419.509399 445.385193,428.978699 436.816559,437.373352 
	C421.725891,452.157562 405.291382,465.418579 386.886597,476.035522 
	C364.938904,488.696198 341.948334,498.902222 317.123566,504.308289 
	C305.435059,506.853668 293.531586,508.882446 281.621246,509.817535 
	C267.240021,510.946655 252.699753,511.556366 238.316574,510.772156 
	C220.443054,509.797607 202.831833,506.425598 185.548874,501.349426 
	C158.401199,493.375854 133.249374,481.346954 110.260025,464.963654 
	C101.423332,458.666199 93.208496,451.463501 84.951767,444.391327 
	C64.666298,427.016144 48.807583,405.919434 35.704536,382.890717 
	C28.803406,370.761932 23.862162,357.517944 18.083757,344.408386 
z"/>
</svg>