<svg version="1.1" id="Layer_1" xmlns="http://www.w3.org/2000/svg" xmlns:xlink="http://www.w3.org/1999/xlink" x="0px" y="0px"
	 width="100%" viewBox="0 0 512 512" enable-background="new 0 0 512 512" xml:space="preserve">
<path fill="#C8102E" opacity="1.000000" stroke="none" 
	d="
M230.000000,0.999999 
	C247.020889,1.000000 264.041779,1.000000 281.437073,1.417219 
	C285.887451,2.488688 289.963409,3.142938 294.416138,4.041612 
	C294.877167,6.275694 295.034729,8.265340 295.035126,10.255015 
	C295.047882,77.723381 295.045746,145.191742 295.045746,212.660110 
	C295.045746,214.607300 295.045715,216.554489 295.045715,218.927948 
	C297.360168,218.927948 299.152252,218.927948 300.944366,218.927948 
	C354.086121,218.927948 407.227875,218.939194 460.369629,218.921402 
	C477.193268,218.915756 494.016876,218.832504 510.902405,219.226746 
	C511.642822,221.779144 512.321411,223.889572 513.000000,226.000000 
	C513.000000,246.687561 513.000000,267.375122 512.594116,288.417206 
	C511.737640,290.865387 511.287048,292.959076 510.379547,295.046326 
	C438.365448,295.039886 366.808289,295.039886 295.045837,295.039886 
	C295.045837,297.580566 295.045837,299.400879 295.045837,301.221161 
	C295.045837,369.029785 295.053772,436.838409 295.003906,504.647003 
	C295.002533,506.502594 294.379211,508.357727 293.675537,510.251953 
	C291.870087,511.193909 290.435059,512.096985 289.000000,513.000000 
	C267.979095,513.000000 246.958206,513.000000 225.579300,512.589844 
	C223.101852,511.734741 220.982422,511.289795 218.885986,510.387085 
	C218.908997,438.410309 218.908997,366.891327 218.908997,295.091858 
	C146.610535,295.091858 74.889084,295.091858 3.102469,294.668884 
	C2.358204,292.497284 1.679100,290.748627 0.999998,289.000000 
	C1.000000,267.979095 1.000000,246.958206 1.408851,225.580322 
	C2.267718,223.110733 2.717734,220.998138 3.625008,218.897110 
	C75.618149,218.908661 147.154022,218.908661 218.953354,218.908661 
	C218.953354,216.257172 218.953369,214.275192 218.953369,212.293198 
	C218.953354,146.509445 218.950638,80.725685 218.960678,14.941932 
	C218.961227,11.282042 219.067276,7.622167 219.539856,3.976774 
	C222.838272,3.641467 225.737915,3.383907 228.589554,2.863414 
	C229.154266,2.760338 229.534622,1.647291 230.000000,0.999999 
z"/>
<path fill="#000000" opacity="1.000000" stroke="none" 
	d="
M294.039368,3.797189 
	C289.963409,3.142938 285.887451,2.488688 281.905762,1.417219 
	C358.926056,1.000000 435.852142,1.000000 513.000000,1.000000 
	C513.000000,75.687416 513.000000,150.375046 513.000000,225.531342 
	C512.321411,223.889572 511.642822,221.779144 510.717468,218.885529 
	C508.597809,209.470734 506.724915,200.839111 504.940521,191.809875 
	C503.317444,185.942657 502.024567,180.296936 499.812408,175.037933 
	C494.164795,161.611664 488.107269,148.357834 482.114349,134.668503 
	C475.985962,124.769386 469.956909,115.236794 463.807159,105.410736 
	C456.739044,97.090813 449.791626,89.064362 442.845154,80.699112 
	C434.529022,72.595863 426.211975,64.831406 417.562500,56.980659 
	C409.071106,51.330891 400.932220,45.737736 392.748535,40.210880 
	C380.331726,31.825191 366.895630,25.382830 352.993103,19.943602 
	C343.713379,16.313011 334.233368,13.194239 324.678711,9.546064 
	C323.601929,9.280365 322.689423,9.315009 321.479065,9.089168 
	C315.790344,7.550977 310.431000,6.111438 304.997467,5.052701 
	C301.399841,4.351692 297.695770,4.196650 294.039368,3.797189 
z"/>
<path fill="#000000" opacity="1.000000" stroke="none" 
	d="
M3.167751,218.885559 
	C2.717734,220.998138 2.267718,223.110733 1.408851,225.111664 
	C1.000000,150.405487 1.000000,75.810966 1.000000,1.000000 
	C77.020760,1.000000 153.041718,1.000000 229.531342,0.999999 
	C229.534622,1.647291 229.154266,2.760338 228.589554,2.863414 
	C225.737915,3.383907 222.838272,3.641467 219.343140,3.636083 
	C215.163116,3.853666 211.545303,4.215444 208.039429,5.048435 
	C202.724289,6.311307 197.487000,7.901752 191.853485,9.300060 
	C190.673660,9.475621 189.856949,9.704153 188.684784,10.091816 
	C154.668060,19.403055 124.348732,35.121262 96.712288,56.898022 
	C88.112656,64.762268 79.824364,72.450935 71.265335,80.269623 
	C67.081993,84.661415 62.994316,88.778290 59.310558,93.229446 
	C56.201927,96.985680 53.562000,101.129822 50.441994,105.283333 
	C44.158413,114.926247 38.147465,124.388084 31.952602,134.178040 
	C28.616171,141.126190 25.057453,147.587952 22.402323,154.401825 
	C17.950747,165.825943 14.074908,177.474411 9.621381,189.173859 
	C9.307955,190.288544 9.329945,191.257812 9.090811,192.524292 
	C6.942374,201.509506 5.055062,210.197540 3.167751,218.885559 
z"/>
<path fill="#000000" opacity="1.000000" stroke="none" 
	d="
M0.999998,289.468658 
	C1.679100,290.748627 2.358204,292.497284 3.221907,295.048950 
	C3.603345,296.775116 3.793977,297.699585 3.997998,298.621094 
	C5.710190,306.354767 7.424833,314.087891 9.048216,322.204407 
	C12.116117,332.287231 14.789944,342.180511 18.567726,351.632538 
	C22.433617,361.305054 27.381355,370.545166 31.989555,380.315369 
	C34.055313,383.948364 35.830822,387.345245 37.952003,390.510468 
	C42.107235,396.710938 46.455173,402.782318 50.838074,409.254395 
	C57.823719,417.692047 64.694649,425.782379 71.776199,434.160889 
	C80.029312,441.946899 88.071808,449.444794 96.389511,457.127563 
	C99.134079,459.230560 101.564095,461.202087 104.079224,463.058258 
	C120.335716,475.056091 137.486954,485.589539 156.314056,493.010803 
	C167.020203,497.230927 178.131943,500.422119 189.211273,504.402130 
	C190.315201,504.700928 191.268906,504.674255 192.520477,504.908264 
	C193.364243,505.444550 193.882202,505.857910 194.460190,505.975006 
	C202.589661,507.621887 210.727310,509.228485 218.862991,510.844849 
	C220.982422,511.289795 223.101852,511.734741 225.110641,512.589844 
	C150.406296,513.000000 75.812599,513.000000 1.000000,513.000000 
	C1.000000,438.645905 1.000000,364.291626 0.999998,289.468658 
z"/>
<path fill="#000000" opacity="1.000000" stroke="none" 
	d="
M510.836487,295.052734 
	C511.287048,292.959076 511.737640,290.865387 512.594116,288.885864 
	C513.000000,363.593719 513.000000,438.187408 513.000000,513.000000 
	C438.645905,513.000000 364.291626,513.000000 289.468658,513.000000 
	C290.435059,512.096985 291.870087,511.193909 293.882080,510.573669 
	C296.498779,510.571899 298.574005,510.440002 300.571808,509.975159 
	C307.651733,508.327850 314.705200,506.566772 322.175629,504.894318 
	C324.485687,504.419983 326.389740,503.903503 328.291840,503.379883 
	C355.343842,495.932709 380.249146,483.904694 403.203857,467.865723 
	C408.560333,464.122986 413.353577,459.574036 418.714172,455.479614 
	C427.044891,448.061218 435.067413,440.559265 443.406708,432.942963 
	C450.455566,424.659210 457.187653,416.489807 464.236694,408.137878 
	C470.817780,397.940125 477.081909,387.924866 483.632019,377.740662 
	C486.761780,371.412720 490.006805,365.402771 492.361115,359.062042 
	C496.545471,347.792603 500.190155,336.322815 504.347046,324.850830 
	C504.726837,324.181793 504.820129,323.598724 504.991119,322.765991 
	C505.030853,322.177277 504.992889,321.838287 505.266693,321.216522 
	C507.331116,312.306732 509.083801,303.679749 510.836487,295.052734 
z"/>
<path fill="#FEFDFE" opacity="1.000000" stroke="none" 
	d="
M3.625008,218.897110 
	C5.055062,210.197540 6.942374,201.509506 9.183023,192.563660 
	C9.536361,192.305817 9.704552,192.196426 10.188854,192.254578 
	C41.010983,192.312729 71.348808,192.312729 102.977333,192.312729 
	C100.999321,190.571747 100.075790,189.718994 99.111092,188.915710 
	C80.451820,173.378494 61.804886,157.826370 43.109585,142.332611 
	C39.551994,139.384262 35.799225,136.671432 32.136513,133.849930 
	C38.147465,124.388084 44.158413,114.926247 50.602886,105.592674 
	C82.161476,131.610123 113.513580,157.234390 144.251068,183.575836 
	C151.879974,190.113663 159.313065,193.427155 169.278778,192.467682 
	C176.803650,191.743195 184.454208,192.324280 191.594666,192.324280 
	C193.892090,184.303726 191.172165,179.499207 185.292740,174.675323 
	C147.177307,143.402954 109.414436,111.700890 71.536064,80.139595 
	C79.824364,72.450935 88.112656,64.762268 96.988380,57.102646 
	C123.013672,78.372849 148.448273,99.617905 173.891846,120.852234 
	C179.704178,125.702995 185.547379,130.516769 191.959763,135.831055 
	C192.152740,134.363647 192.299377,133.770432 192.298950,133.177322 
	C192.269562,92.020096 192.228409,50.862869 192.243286,9.621353 
	C192.298340,9.537062 192.216629,9.353030 192.216629,9.353031 
	C197.487000,7.901752 202.724289,6.311307 208.039429,5.048435 
	C211.545303,4.215444 215.163116,3.853666 218.927521,3.621594 
	C219.067276,7.622167 218.961227,11.282042 218.960678,14.941932 
	C218.950638,80.725685 218.953354,146.509445 218.953369,212.293198 
	C218.953369,214.275192 218.953354,216.257172 218.953354,218.908661 
	C147.154022,218.908661 75.618149,218.908661 3.625008,218.897110 
z"/>
<path fill="#FEFDFD" opacity="1.000000" stroke="none" 
	d="
M294.416138,4.041612 
	C297.695770,4.196650 301.399841,4.351692 304.997467,5.052701 
	C310.431000,6.111438 315.790344,7.550977 321.437500,9.184750 
	C321.693787,9.540816 321.810120,9.713924 321.755035,10.197929 
	C321.699951,52.825809 321.699951,94.969688 321.699951,137.609131 
	C322.917542,137.029892 323.393433,136.908951 323.735107,136.625977 
	C354.480499,111.163994 385.222076,85.697296 415.919678,60.177773 
	C416.818756,59.430355 417.247101,58.116650 417.894928,57.066967 
	C426.211975,64.831406 434.529022,72.595863 442.544739,80.819778 
	C403.862335,113.220375 365.604218,145.311783 326.963257,176.935410 
	C321.374878,181.508911 321.235748,186.133301 322.090210,192.240051 
	C334.220612,192.240051 346.021820,192.307480 357.820160,192.154419 
	C359.289062,192.135376 360.985138,191.240021 362.168396,190.259109 
	C396.120178,162.112671 430.019806,133.903351 463.927856,105.704208 
	C469.956909,115.236794 475.985962,124.769386 481.823730,134.848236 
	C459.161133,154.065292 436.689819,172.736099 413.254913,192.207489 
	C444.667938,192.207489 474.760010,192.207489 504.852051,192.207489 
	C506.724915,200.839111 508.597809,209.470734 510.655609,218.443573 
	C494.016876,218.832504 477.193268,218.915756 460.369629,218.921402 
	C407.227875,218.939194 354.086121,218.927948 300.944366,218.927948 
	C299.152252,218.927948 297.360168,218.927948 295.045715,218.927948 
	C295.045715,216.554489 295.045746,214.607300 295.045746,212.660110 
	C295.045746,145.191742 295.047882,77.723381 295.035126,10.255015 
	C295.034729,8.265340 294.877167,6.275694 294.416138,4.041612 
z"/>
<path fill="#FEFDFE" opacity="1.000000" stroke="none" 
	d="
M50.723358,408.907104 
	C46.455173,402.782318 42.107235,396.710938 37.952003,390.510468 
	C35.830822,387.345245 34.055313,383.948364 32.107983,379.994751 
	C54.689487,360.376862 77.286575,341.420441 100.649918,321.821198 
	C69.375328,321.821198 39.257030,321.821198 9.138737,321.821198 
	C7.424833,314.087891 5.710190,306.354767 3.997998,298.621094 
	C3.793977,297.699585 3.603345,296.775116 3.287069,295.471924 
	C74.889084,295.091858 146.610535,295.091858 218.908997,295.091858 
	C218.908997,366.891327 218.908997,438.410309 218.885986,510.387085 
	C210.727310,509.228485 202.589661,507.621887 194.460190,505.975006 
	C193.882202,505.857910 193.364243,505.444550 192.561096,504.815002 
	C192.303802,504.461029 192.191589,504.291138 192.245880,503.806763 
	C192.300186,461.184296 192.300186,419.046204 192.300186,376.449188 
	C191.021973,377.048798 190.682861,377.131775 190.440979,377.332153 
	C159.663300,402.828979 128.886749,428.327179 98.151619,453.875244 
	C97.247383,454.626892 96.783493,455.908295 96.114304,456.942719 
	C88.071808,449.444794 80.029312,441.946899 71.963242,433.866913 
	C110.241272,401.438904 148.408997,369.429108 186.984467,337.918518 
	C192.978561,333.022217 192.705002,328.007721 191.806702,321.677307 
	C180.696503,321.677307 169.873169,321.521423 159.060883,321.797974 
	C156.660690,321.859406 153.847458,322.894012 151.990128,324.415344 
	C132.916229,340.038727 113.972176,355.821320 95.048981,371.627869 
	C80.232094,384.004364 65.495583,396.477112 50.723358,408.907104 
z"/>
<path fill="#FEFDFE" opacity="1.000000" stroke="none" 
	d="
M321.768707,504.848816 
	C314.705200,506.566772 307.651733,508.327850 300.571808,509.975159 
	C298.574005,510.440002 296.498779,510.571899 294.252472,510.534790 
	C294.379211,508.357727 295.002533,506.502594 295.003906,504.647003 
	C295.053772,436.838409 295.045837,369.029785 295.045837,301.221161 
	C295.045837,299.400879 295.045837,297.580566 295.045837,295.039886 
	C366.808289,295.039886 438.365448,295.039886 510.379578,295.046326 
	C509.083801,303.679749 507.331116,312.306732 504.830872,321.322388 
	C474.874969,321.740631 445.666687,321.770203 416.249207,321.952545 
	C416.328796,322.424408 416.617645,322.743469 417.176025,323.259583 
	C424.701782,329.503876 431.933716,335.580505 439.219177,341.592194 
	C453.912689,353.716675 468.635376,365.805878 483.346008,377.909637 
	C477.081909,387.924866 470.817780,397.940125 463.948944,407.951782 
	C429.443878,379.672577 395.547638,351.392029 361.619415,323.149902 
	C360.777924,322.449432 359.585449,321.770782 358.551270,321.762573 
	C346.432800,321.666534 334.313324,321.700958 322.090942,321.700958 
	C321.077301,328.119598 321.611908,332.826233 327.188416,337.216919 
	C344.068909,350.507751 360.330750,364.582825 376.877319,378.299622 
	C398.926697,396.578094 421.017151,414.807068 443.089935,433.057312 
	C435.067413,440.559265 427.044891,448.061218 418.678650,455.142914 
	C417.738007,454.151794 417.172791,453.542847 416.539551,453.015594 
	C385.967316,427.556946 355.391602,402.102478 324.798065,376.669464 
	C324.015686,376.019012 323.030121,375.612946 321.768707,374.876587 
	C321.768707,418.598328 321.768707,461.723572 321.768707,504.848816 
z"/>
<path fill="#02226A" opacity="1.000000" stroke="none" 
	d="
M417.562500,56.980667 
	C417.247101,58.116650 416.818756,59.430355 415.919678,60.177773 
	C385.222076,85.697296 354.480499,111.163994 323.735107,136.625977 
	C323.393433,136.908951 322.917542,137.029892 321.699951,137.609131 
	C321.699951,94.969688 321.699951,52.825809 322.135254,10.186737 
	C323.328064,9.743163 324.085541,9.794786 324.843018,9.846409 
	C334.233368,13.194239 343.713379,16.313011 352.993103,19.943602 
	C366.895630,25.382830 380.331726,31.825191 392.748535,40.210880 
	C400.932220,45.737736 409.071106,51.330891 417.562500,56.980667 
z"/>
<path fill="#C81230" opacity="1.000000" stroke="none" 
	d="
M463.807159,105.410736 
	C430.019806,133.903351 396.120178,162.112671 362.168396,190.259109 
	C360.985138,191.240021 359.289062,192.135376 357.820160,192.154419 
	C346.021820,192.307480 334.220612,192.240051 322.090210,192.240051 
	C321.235748,186.133301 321.374878,181.508911 326.963257,176.935410 
	C365.604218,145.311783 403.862335,113.220375 442.543823,81.158585 
	C449.791626,89.064362 456.739044,97.090813 463.807159,105.410736 
z"/>
<path fill="#02226A" opacity="1.000000" stroke="none" 
	d="
M504.940521,191.809875 
	C474.760010,192.207489 444.667938,192.207489 413.254913,192.207489 
	C436.689819,172.736099 459.161133,154.065292 481.923096,135.214752 
	C488.107269,148.357834 494.164795,161.611664 499.812408,175.037933 
	C502.024567,180.296936 503.317444,185.942657 504.940521,191.809875 
z"/>
<path fill="#99A7C3" opacity="1.000000" stroke="none" 
	d="
M324.678711,9.546066 
	C324.085541,9.794786 323.328064,9.743163 322.190369,9.702732 
	C321.810120,9.713924 321.693787,9.540816 321.735352,9.445234 
	C322.689423,9.315009 323.601929,9.280365 324.678711,9.546066 
z"/>
<path fill="#022269" opacity="1.000000" stroke="none" 
	d="
M192.188232,9.705645 
	C192.228409,50.862869 192.269562,92.020096 192.298950,133.177322 
	C192.299377,133.770432 192.152740,134.363647 191.959763,135.831055 
	C185.547379,130.516769 179.704178,125.702995 173.891846,120.852234 
	C148.448273,99.617905 123.013672,78.372849 97.299721,56.927063 
	C124.348732,35.121262 154.668060,19.403055 189.080292,10.088841 
	C190.616928,9.853039 191.402573,9.779342 192.188232,9.705645 
z"/>
<path fill="#C81230" opacity="1.000000" stroke="none" 
	d="
M71.265335,80.269623 
	C109.414436,111.700890 147.177307,143.402954 185.292740,174.675323 
	C191.172165,179.499207 193.892090,184.303726 191.594666,192.324280 
	C184.454208,192.324280 176.803650,191.743195 169.278778,192.467682 
	C159.313065,193.427155 151.879974,190.113663 144.251068,183.575836 
	C113.513580,157.234390 82.161476,131.610123 50.875511,105.411606 
	C53.562000,101.129822 56.201927,96.985680 59.310558,93.229446 
	C62.994316,88.778290 67.081993,84.661415 71.265335,80.269623 
z"/>
<path fill="#02226A" opacity="1.000000" stroke="none" 
	d="
M31.952602,134.178040 
	C35.799225,136.671432 39.551994,139.384262 43.109585,142.332611 
	C61.804886,157.826370 80.451820,173.378494 99.111092,188.915710 
	C100.075790,189.718994 100.999321,190.571747 102.977333,192.312729 
	C71.348808,192.312729 41.010983,192.312729 10.193670,191.856506 
	C9.795055,190.609665 9.875927,189.819077 9.956798,189.028473 
	C14.074908,177.474411 17.950747,165.825943 22.402323,154.401825 
	C25.057453,147.587952 28.616171,141.126190 31.952602,134.178040 
z"/>
<path fill="#98A5C2" opacity="1.000000" stroke="none" 
	d="
M9.621382,189.173859 
	C9.875927,189.819077 9.795055,190.609665 9.709368,191.798340 
	C9.704552,192.196426 9.536361,192.305817 9.444148,192.266449 
	C9.329945,191.257812 9.307955,190.288544 9.621382,189.173859 
z"/>
<path fill="#9AA7C3" opacity="1.000000" stroke="none" 
	d="
M192.243286,9.621353 
	C191.402573,9.779342 190.616928,9.853039 189.435760,9.929710 
	C189.856949,9.704153 190.673660,9.475621 191.853485,9.300059 
	C192.216629,9.353030 192.298340,9.537062 192.243286,9.621353 
z"/>
<path fill="#022269" opacity="1.000000" stroke="none" 
	d="
M96.389511,457.127563 
	C96.783493,455.908295 97.247383,454.626892 98.151619,453.875244 
	C128.886749,428.327179 159.663300,402.828979 190.440979,377.332153 
	C190.682861,377.131775 191.021973,377.048798 192.300186,376.449188 
	C192.300186,419.046204 192.300186,461.184296 191.852905,503.808411 
	C190.624100,504.221832 189.842575,504.149231 189.061035,504.076660 
	C178.131943,500.422119 167.020203,497.230927 156.314056,493.010803 
	C137.486954,485.589539 120.335716,475.056091 104.079224,463.058258 
	C101.564095,461.202087 99.134079,459.230560 96.389511,457.127563 
z"/>
<path fill="#C81230" opacity="1.000000" stroke="none" 
	d="
M50.838074,409.254395 
	C65.495583,396.477112 80.232094,384.004364 95.048981,371.627869 
	C113.972176,355.821320 132.916229,340.038727 151.990128,324.415344 
	C153.847458,322.894012 156.660690,321.859406 159.060883,321.797974 
	C169.873169,321.521423 180.696503,321.677307 191.806702,321.677307 
	C192.705002,328.007721 192.978561,333.022217 186.984467,337.918518 
	C148.408997,369.429108 110.241272,401.438904 71.752625,433.578796 
	C64.694649,425.782379 57.823719,417.692047 50.838074,409.254395 
z"/>
<path fill="#02226A" opacity="1.000000" stroke="none" 
	d="
M9.048215,322.204407 
	C39.257030,321.821198 69.375328,321.821198 100.649918,321.821198 
	C77.286575,341.420441 54.689487,360.376862 31.973976,379.653931 
	C27.381355,370.545166 22.433617,361.305054 18.567726,351.632538 
	C14.789944,342.180511 12.116117,332.287231 9.048215,322.204407 
z"/>
<path fill="#9AA7C3" opacity="1.000000" stroke="none" 
	d="
M189.211273,504.402100 
	C189.842575,504.149231 190.624100,504.221832 191.798615,504.292786 
	C192.191589,504.291138 192.303802,504.461029 192.263199,504.554321 
	C191.268906,504.674255 190.315201,504.700928 189.211273,504.402100 
z"/>
<path fill="#022269" opacity="1.000000" stroke="none" 
	d="
M322.175629,504.894348 
	C321.768707,461.723572 321.768707,418.598328 321.768707,374.876587 
	C323.030121,375.612946 324.015686,376.019012 324.798065,376.669464 
	C355.391602,402.102478 385.967316,427.556946 416.539551,453.015594 
	C417.172791,453.542847 417.738007,454.151794 418.370483,455.059357 
	C413.353577,459.574036 408.560333,464.122986 403.203857,467.865723 
	C380.249146,483.904694 355.343842,495.932709 328.291840,503.379883 
	C326.389740,503.903503 324.485687,504.419983 322.175629,504.894348 
z"/>
<path fill="#C81230" opacity="1.000000" stroke="none" 
	d="
M443.406708,432.942963 
	C421.017151,414.807068 398.926697,396.578094 376.877319,378.299622 
	C360.330750,364.582825 344.068909,350.507751 327.188416,337.216919 
	C321.611908,332.826233 321.077301,328.119598 322.090942,321.700958 
	C334.313324,321.700958 346.432800,321.666534 358.551270,321.762573 
	C359.585449,321.770782 360.777924,322.449432 361.619415,323.149902 
	C395.547638,351.392029 429.443878,379.672577 463.631958,408.134277 
	C457.187653,416.489807 450.455566,424.659210 443.406708,432.942963 
z"/>
<path fill="#02226A" opacity="1.000000" stroke="none" 
	d="
M416.458405,321.799744 
	C445.666687,321.770203 474.874969,321.740631 504.519104,321.605164 
	C504.992889,321.838287 505.030853,322.177277 504.736572,322.897400 
	C504.289703,323.831329 504.175110,324.384064 504.060547,324.936829 
	C500.190155,336.322815 496.545471,347.792603 492.361115,359.062042 
	C490.006805,365.402771 486.761780,371.412720 483.632019,377.740662 
	C468.635376,365.805878 453.912689,353.716675 439.219177,341.592194 
	C431.933716,335.580505 424.701782,329.503876 417.066284,322.943115 
	C416.610779,322.219604 416.534607,322.009705 416.458405,321.799744 
z"/>
<path fill="#97A4C2" opacity="1.000000" stroke="none" 
	d="
M504.347046,324.850830 
	C504.175110,324.384064 504.289703,323.831329 504.658875,323.147125 
	C504.820129,323.598724 504.726837,324.181793 504.347046,324.850830 
z"/>
<path fill="#97A4C2" opacity="1.000000" stroke="none" 
	d="
M416.249207,321.952576 
	C416.534607,322.009705 416.610779,322.219604 416.796722,322.746033 
	C416.617645,322.743469 416.328796,322.424408 416.249207,321.952576 
z"/>
</svg>