<svg width="177" height="43" viewBox="0 0 177 43" fill="none" xmlns="http://www.w3.org/2000/svg">
<g clip-path="url(#clip0_87_879)">
<path d="M32.7883 31.5153L22.4469 37.6302L12.1097 31.5153V22.6118L7.82532 20.6581V32.7804C7.82532 33.5636 8.23276 34.2866 8.89642 34.6825L21.3716 42.0626C21.7076 42.2563 22.0731 42.3552 22.4427 42.3552C22.8123 42.3552 23.182 42.252 23.5138 42.0626L35.9932 34.6825C36.6569 34.2866 37.0643 33.5636 37.0643 32.7804V20.6538L32.7799 22.6118V31.5153H32.7883Z" fill="#FF512D"/>
<path d="M23.518 32.8407L29.3607 29.3895V24.3159L22.4469 28.404L15.5372 24.3202V29.3895L21.3758 32.8407C21.7118 33.0344 22.0773 33.1333 22.4469 33.1333C22.8165 33.1333 23.1862 33.0344 23.518 32.8407Z" fill="#FF512D"/>
<path d="M47.3931 24.2904L44.1924 23.8127L44.1546 23.7353L44.9023 11.9701H44.8897C44.9527 11.0406 44.4486 10.18 43.6337 9.80987L23.3206 0.544912C22.762 0.291019 22.1361 0.291019 21.5774 0.544912L12.2274 4.81376L6.96426 7.21499L1.26852 9.80987C0.495647 10.1627 0 10.9459 0 11.8152C0 12.6845 0.495647 13.4634 1.26852 13.8205L21.5816 23.0855C21.8589 23.2146 22.1571 23.2748 22.4511 23.2748C22.7452 23.2748 23.0476 23.2146 23.3248 23.0855L28.3317 20.8047L32.5405 18.8812L37.8078 16.4756L32.5405 14.0744L28.3317 12.1509L21.7077 9.12995L16.4404 11.5355L23.0644 14.5521L27.2816 16.4756L23.0728 18.3992L22.4553 18.6789L7.4053 11.8152L12.2274 9.61622L21.7077 5.29143L22.4469 4.95147L37.4928 11.8152L40.6977 13.2783L41.3613 23.7396L41.3235 23.817L38.1228 24.2947L40.4414 26.6099L39.8954 29.8761L42.7601 28.3355L45.6247 29.8761L45.0787 26.6099L47.3973 24.2947L47.3931 24.2904Z" fill="#FF512D"/>
<path d="M69.4369 24.4751H72.7846V28.7095C71.8563 29.368 70.1131 29.8413 68.1893 29.8413C64.0562 29.8413 61.7753 26.2309 61.7753 21.2649C61.7753 16.2989 64.766 12.8692 68.5086 12.8692C70.5038 12.8692 72.3225 13.377 74.4605 14.8745L76.8464 11.3329C74.2799 9.362 71.6085 8.44971 68.5086 8.44971C61.1663 8.44971 56.4996 13.8891 56.4996 21.3725C56.4996 28.8559 60.4186 34.2608 68.1893 34.2608C71.7135 34.2608 75.5274 32.5093 77.237 30.9731V20.8259H69.4369V24.4751Z" fill="#F5F5F6"/>
<path d="M89.1031 14.2896C83.2603 14.2896 80.1562 18.4551 80.1562 24.2559C80.1562 29.734 83.2225 34.2611 89.1031 34.2611C94.9837 34.2611 97.9743 29.6953 97.9743 24.2559C97.9743 18.5283 95.0551 14.2896 89.1031 14.2896ZM89.1031 29.8803C86.8223 29.8803 85.3269 27.8707 85.3269 24.2215C85.3269 20.5723 86.7845 18.6703 89.1031 18.6703C91.4217 18.6703 92.8079 20.5723 92.8079 24.2215C92.8079 27.8707 91.2747 29.8803 89.1031 29.8803Z" fill="#F5F5F6"/>
<path d="M108.522 29.8805C107.56 29.8805 106.631 29.2952 106.631 27.4362V18.4897H110.731L111.122 14.6942H106.631V9.06982H102.179L101.574 14.6942H98.9363V18.4897H101.574V27.9096C101.574 32.0708 104.136 34.2612 107.808 34.2612C109.378 34.2612 110.765 33.8954 111.726 33.5297L110.622 29.5147C109.874 29.7342 109.236 29.8805 108.522 29.8805Z" fill="#F5F5F6"/>
<path d="M124.554 28.4213C123.63 29.2604 122.24 29.8801 120.992 29.8801C119.497 29.8801 118.745 28.8947 118.745 26.0115V14.6938H113.688V26.3773C113.688 31.524 116.431 34.2609 120.493 34.2609C122.488 34.2609 124.202 33.1635 125.021 31.9973H125.088C125.088 32.2512 125.231 33.4949 125.34 33.8607H129.616V14.6938H124.554V28.4213Z" fill="#F5F5F6"/>
<path d="M140.873 29.8805C139.911 29.8805 138.987 29.2952 138.987 27.4362V18.4897H143.082L143.477 14.6942H138.987V9.06982H134.53L133.926 14.6942H131.288V18.4897H133.926V27.9096C133.926 32.0708 136.492 34.2612 140.163 34.2612C141.73 34.2612 143.12 33.8954 144.082 33.5297L142.977 29.5147C142.23 29.7342 141.587 29.8805 140.873 29.8805Z" fill="#F5F5F6"/>
<path d="M154.129 14.2896C148.287 14.2896 145.187 18.4551 145.187 24.2559C145.187 29.734 148.249 34.2611 154.129 34.2611C160.01 34.2611 163.001 29.6953 163.001 24.2559C163.001 18.5283 160.081 14.2896 154.129 14.2896ZM154.129 29.8803C151.849 29.8803 150.353 27.8707 150.353 24.2215C150.353 20.5723 151.811 18.6703 154.129 18.6703C156.448 18.6703 157.834 20.5723 157.834 24.2215C157.834 27.8707 156.301 29.8803 154.129 29.8803Z" fill="#F5F5F6"/>
<path d="M175.186 14.2896C172.657 14.2896 171.053 16.3723 170.553 17.4309H170.448C170.448 17.1039 170.305 15.0943 170.2 14.6941H165.853V33.8609H170.91V22.6164C170.91 20.9725 173.014 18.6703 174.867 18.6703C175.615 18.6703 176.043 18.7822 176.4 18.9285V14.4316C176.085 14.3498 175.682 14.2896 175.186 14.2896Z" fill="#F5F5F6"/>
</g>
<defs>
<clipPath id="clip0_87_879">
<rect width="176.4" height="42" fill="white" transform="translate(0 0.355469)"/>
</clipPath>
</defs>
</svg>
