<svg width="20" height="20" viewBox="0 0 20 20" fill="none" xmlns="http://www.w3.org/2000/svg">
<g id="flag-02">
<path id="Vector" d="M3.33203 3.33336V17.4959" stroke="#44060A" stroke-linecap="round" stroke-linejoin="round"/>
<path id="Vector_2" opacity="0.5" d="M9.79767 3.25721C7.04331 1.85414 4.87572 2.6762 3.79489 3.516C3.60007 3.66738 3.50266 3.74306 3.41783 3.91639C3.33301 4.08973 3.33301 4.25115 3.33301 4.574V12.2766C4.14109 11.3618 6.56533 9.944 9.79767 11.5905C12.6863 13.062 15.1448 12.452 16.3078 11.8162C16.4691 11.7281 16.5498 11.6839 16.6081 11.5857C16.6663 11.4874 16.6663 11.3808 16.6663 11.1674V4.89491C16.6663 4.20448 16.6663 3.85928 16.5019 3.73422C16.3374 3.60916 15.9527 3.71583 15.1832 3.9292C13.8663 4.29433 11.9516 4.35443 9.79767 3.25721Z" fill="#44060A"/>
</g>
</svg>
