<svg width="164" height="38" viewBox="0 0 164 38" fill="none" xmlns="http://www.w3.org/2000/svg">
<g clip-path="url(#clip0_49_7364)">
<path d="M30.3923 28.1924L20.8066 33.725L11.2249 28.1924V20.1369L7.25354 18.3693V29.3371C7.25354 30.0457 7.6312 30.6998 8.24637 31.058L19.8099 37.7352C20.1214 37.9104 20.4601 38 20.8027 38C21.1453 38 21.488 37.9065 21.7956 37.7352L33.363 31.058C33.9781 30.6998 34.3558 30.0457 34.3558 29.3371V18.3654L30.3845 20.1369V28.1924H30.3923Z" fill="#FF542F"/>
<path d="M21.7994 29.3916L27.2152 26.2691V21.6787L20.8066 25.3775L14.4019 21.6826V26.2691L19.8137 29.3916C20.1252 29.5668 20.4639 29.6564 20.8066 29.6564C21.1492 29.6564 21.4918 29.5668 21.7994 29.3916Z" fill="#FF542F"/>
<path d="M43.9297 21.6555L40.9629 21.2233L40.9279 21.1533L41.6209 10.5086H41.6092C41.6676 9.6676 41.2004 8.88891 40.4451 8.55407L21.6164 0.171491C21.0986 -0.0582217 20.5184 -0.0582217 20.0006 0.171491L11.3338 4.03379L6.45533 6.20633L1.17582 8.55407C0.459426 8.87333 0 9.58194 0 10.3684C0 11.1549 0.459426 11.8596 1.17582 12.1828L20.0045 20.5653C20.2615 20.6821 20.5379 20.7367 20.8104 20.7367C21.083 20.7367 21.3633 20.6821 21.6203 20.5653L26.2613 18.5018L30.1625 16.7614L35.0449 14.585L30.1625 12.4125L26.2613 10.6721L20.1213 7.93891L15.2389 10.1153L21.3789 12.8446L25.2879 14.585L21.3867 16.3254L20.8143 16.5785L6.86414 10.3684L11.3338 8.37887L20.1213 4.46596L20.8066 4.15838L34.7529 10.3684L37.7236 11.6922L38.3387 21.1571L38.3037 21.2272L35.3369 21.6594L37.4861 23.7541L36.9799 26.7092L39.6352 25.3153L42.2906 26.7092L41.7844 23.7541L43.9336 21.6594L43.9297 21.6555Z" fill="#FF542F"/>
<path d="M64.3625 21.8227H67.4656V25.6539C66.6052 26.2496 64.9894 26.6779 63.2062 26.6779C59.375 26.6779 57.2609 23.4113 57.2609 18.9182C57.2609 14.4252 60.033 11.3221 63.5021 11.3221C65.3515 11.3221 67.0373 11.7815 69.0191 13.1365L71.2306 9.93215C68.8517 8.14896 66.3754 7.32355 63.5021 7.32355C56.6963 7.32355 52.3707 12.2449 52.3707 19.0156C52.3707 25.7863 56.0033 30.6764 63.2062 30.6764C66.4728 30.6764 70.008 29.0918 71.5927 27.7018V18.5211H64.3625V21.8227Z" fill="black"/>
<path d="M82.5916 12.607C77.1758 12.607 74.2986 16.3758 74.2986 21.6242C74.2986 26.5806 77.1408 30.6765 82.5916 30.6765C88.0424 30.6765 90.8146 26.5455 90.8146 21.6242C90.8146 16.442 88.1086 12.607 82.5916 12.607ZM82.5916 26.7129C80.4775 26.7129 79.0914 24.8947 79.0914 21.5931C79.0914 18.2914 80.4424 16.5705 82.5916 16.5705C84.7408 16.5705 86.0256 18.2914 86.0256 21.5931C86.0256 24.8947 84.6045 26.7129 82.5916 26.7129Z" fill="black"/>
<path d="M100.591 26.7129C99.6994 26.7129 98.839 26.1834 98.839 24.5014V16.407H102.639L103.001 12.9729H98.839V7.88422H94.7119L94.1513 12.9729H91.7062V16.407H94.1513V24.9297C94.1513 28.6947 96.5263 30.6764 99.9291 30.6764C101.385 30.6764 102.67 30.3455 103.562 30.0145L102.538 26.382C101.845 26.5805 101.253 26.7129 100.591 26.7129Z" fill="black"/>
<path d="M115.452 25.393C114.596 26.1523 113.307 26.7129 112.151 26.7129C110.765 26.7129 110.068 25.8213 110.068 23.2127V12.973H105.38V23.5437C105.38 28.2002 107.922 30.6764 111.687 30.6764C113.537 30.6764 115.125 29.6836 115.884 28.6285H115.947C115.947 28.8582 116.079 29.9834 116.18 30.3144H120.144V12.973H115.452V25.393Z" fill="black"/>
<path d="M130.578 26.7129C129.687 26.7129 128.83 26.1834 128.83 24.5014V16.407H132.626L132.992 12.9729H128.83V7.88422H124.699L124.139 12.9729H121.693V16.407H124.139V24.9297C124.139 28.6947 126.517 30.6764 129.92 30.6764C131.373 30.6764 132.661 30.3455 133.553 30.0145L132.529 26.382C131.836 26.5805 131.24 26.7129 130.578 26.7129Z" fill="black"/>
<path d="M142.866 12.607C137.45 12.607 134.577 16.3758 134.577 21.6242C134.577 26.5806 137.415 30.6765 142.866 30.6765C148.317 30.6765 151.089 26.5455 151.089 21.6242C151.089 16.442 148.383 12.607 142.866 12.607ZM142.866 26.7129C140.752 26.7129 139.366 24.8947 139.366 21.5931C139.366 18.2914 140.717 16.5705 142.866 16.5705C145.015 16.5705 146.3 18.2914 146.3 21.5931C146.3 24.8947 144.879 26.7129 142.866 26.7129Z" fill="black"/>
<path d="M162.384 12.607C160.04 12.607 158.553 14.4914 158.089 15.4492H157.992C157.992 15.1533 157.86 13.3351 157.762 12.973H153.733V30.3144H158.42V20.1408C158.42 18.6535 160.371 16.5705 162.088 16.5705C162.781 16.5705 163.178 16.6717 163.509 16.8041V12.7355C163.217 12.6615 162.843 12.607 162.384 12.607Z" fill="black"/>
</g>
<defs>
<clipPath id="clip0_49_7364">
<rect width="163.509" height="38" fill="white"/>
</clipPath>
</defs>
</svg>
