<svg width="782" height="617" viewBox="0 0 782 617" fill="none" xmlns="http://www.w3.org/2000/svg">
<path d="M540.512 457.116L369.897 546.818L199.351 457.116V326.509L128.665 297.85V475.675C128.665 487.164 135.387 497.769 146.337 503.577L352.156 611.838C357.7 614.678 363.729 616.13 369.827 616.13C375.926 616.13 382.024 614.615 387.499 611.838L593.387 503.577C604.337 497.769 611.059 487.164 611.059 475.675V297.787L540.373 326.509V457.116H540.512Z" fill="#FFE1D4"/>
<path d="M387.492 476.246L483.848 425.866V351.802L369.828 411.48L255.876 351.865V425.866L352.164 476.246C357.705 479.073 363.732 480.518 369.828 480.518C375.924 480.518 382.019 479.073 387.492 476.246Z" fill="#FFE1D4"/>
<path d="M781.024 351.422L728.291 344.411L727.668 343.275L739.986 170.605H739.778C740.816 156.963 732.512 144.332 719.086 138.9L384.416 2.9248C375.212 -0.80143 364.9 -0.80143 355.696 2.9248L201.648 65.5759L114.936 100.817L21.0949 138.9C8.36138 144.079 0.195312 155.574 0.195312 168.331C0.195312 181.089 8.36138 192.52 21.0949 197.762L355.765 333.738C360.333 335.633 365.246 336.517 370.091 336.517C374.935 336.517 379.918 335.633 384.485 333.738L466.976 300.265L536.319 272.034L623.1 236.73L536.319 201.488L466.976 173.258L357.842 128.922L271.06 164.226L380.194 208.499L449.675 236.73L380.333 264.961L370.16 269.066L122.202 168.331L201.648 136.058L357.842 72.5863L370.021 67.5969L617.91 168.331L670.713 189.805L681.647 343.338L681.024 344.475L628.291 351.485L666.491 385.463L657.495 433.399L704.692 410.789L751.889 433.399L742.893 385.463L781.093 351.485L781.024 351.422Z" fill="#FFE1D4"/>
</svg>
