<svg width="164" height="38" viewBox="0 0 164 38" fill="none" xmlns="http://www.w3.org/2000/svg">
<g clip-path="url(#clip0_2003_998)">
<path d="M30.3926 28.1924L20.807 33.725L11.2252 28.1924V20.1369L7.25391 18.3693V29.3371C7.25391 30.0457 7.63157 30.6998 8.24673 31.058L19.8103 37.7352C20.1217 37.9104 20.4605 38 20.8031 38C21.1457 38 21.4883 37.9065 21.7959 37.7352L33.3633 31.058C33.9785 30.6998 34.3562 30.0457 34.3562 29.3371V18.3654L30.3849 20.1369V28.1924H30.3926Z" fill="#6CC24A"/>
<path d="M21.7989 29.3916L27.2147 26.2691V21.6787L20.8061 25.3775L14.4014 21.6826V26.2691L19.8133 29.3916C20.1247 29.5668 20.4635 29.6564 20.8061 29.6564C21.1487 29.6564 21.4913 29.5668 21.7989 29.3916Z" fill="#6CC24A"/>
<path d="M43.9297 21.6555L40.9629 21.2233L40.9279 21.1533L41.6209 10.5086H41.6092C41.6676 9.6676 41.2004 8.88891 40.4451 8.55407L21.6164 0.171491C21.0986 -0.0582217 20.5184 -0.0582217 20.0006 0.171491L11.3338 4.03379L6.45533 6.20633L1.17582 8.55407C0.459426 8.87333 0 9.58194 0 10.3684C0 11.1549 0.459426 11.8596 1.17582 12.1828L20.0045 20.5653C20.2615 20.6821 20.5379 20.7367 20.8104 20.7367C21.083 20.7367 21.3633 20.6821 21.6203 20.5653L26.2613 18.5018L30.1625 16.7614L35.0449 14.585L30.1625 12.4125L26.2613 10.6721L20.1213 7.93891L15.2389 10.1153L21.3789 12.8446L25.2879 14.585L21.3867 16.3254L20.8143 16.5785L6.86414 10.3684L11.3338 8.37887L20.1213 4.46596L20.8066 4.15838L34.7529 10.3684L37.7236 11.6922L38.3387 21.1571L38.3037 21.2272L35.3369 21.6594L37.4861 23.7541L36.9799 26.7092L39.6352 25.3153L42.2906 26.7092L41.7844 23.7541L43.9336 21.6594L43.9297 21.6555Z" fill="#6CC24A"/>
<path d="M64.3629 21.8227H67.466V25.6539C66.6055 26.2496 64.9897 26.6779 63.2065 26.6779C59.3754 26.6779 57.2613 23.4113 57.2613 18.9182C57.2613 14.4252 60.0334 11.3221 63.5025 11.3221C65.3518 11.3221 67.0377 11.7815 69.0195 13.1365L71.2309 9.93215C68.852 8.14896 66.3758 7.32355 63.5025 7.32355C56.6967 7.32355 52.3711 12.2449 52.3711 19.0156C52.3711 25.7863 56.0037 30.6764 63.2065 30.6764C66.4731 30.6764 70.0084 29.0918 71.593 27.7018V18.5211H64.3629V21.8227Z" fill="black"/>
<path d="M82.5919 12.607C77.1761 12.607 74.2988 16.3758 74.2988 21.6242C74.2988 26.5806 77.141 30.6765 82.5919 30.6765C88.0427 30.6765 90.8148 26.5455 90.8148 21.6242C90.8148 16.442 88.1089 12.607 82.5919 12.607ZM82.5919 26.7129C80.4777 26.7129 79.0917 24.8947 79.0917 21.5931C79.0917 18.2914 80.4427 16.5705 82.5919 16.5705C84.741 16.5705 86.0259 18.2914 86.0259 21.5931C86.0259 24.8947 84.6048 26.7129 82.5919 26.7129Z" fill="black"/>
<path d="M100.591 26.7129C99.6993 26.7129 98.8388 26.1834 98.8388 24.5014V16.407H102.639L103.001 12.9729H98.8388V7.88422H94.7118L94.1511 12.9729H91.7061V16.407H94.1511V24.9297C94.1511 28.6947 96.5261 30.6764 99.929 30.6764C101.385 30.6764 102.67 30.3455 103.562 30.0145L102.538 26.382C101.845 26.5805 101.253 26.7129 100.591 26.7129Z" fill="black"/>
<path d="M115.452 25.393C114.596 26.1523 113.307 26.7129 112.151 26.7129C110.765 26.7129 110.068 25.8213 110.068 23.2127V12.973H105.38V23.5437C105.38 28.2002 107.922 30.6764 111.687 30.6764C113.537 30.6764 115.125 29.6836 115.884 28.6285H115.947C115.947 28.8582 116.079 29.9834 116.18 30.3144H120.144V12.973H115.452V25.393Z" fill="black"/>
<path d="M130.578 26.7129C129.687 26.7129 128.83 26.1834 128.83 24.5014V16.407H132.626L132.992 12.9729H128.83V7.88422H124.699L124.138 12.9729H121.693V16.407H124.138V24.9297C124.138 28.6947 126.517 30.6764 129.92 30.6764C131.372 30.6764 132.661 30.3455 133.553 30.0145L132.529 26.382C131.836 26.5805 131.24 26.7129 130.578 26.7129Z" fill="black"/>
<path d="M142.866 12.607C137.451 12.607 134.577 16.3758 134.577 21.6242C134.577 26.5806 137.415 30.6765 142.866 30.6765C148.317 30.6765 151.089 26.5455 151.089 21.6242C151.089 16.442 148.383 12.607 142.866 12.607ZM142.866 26.7129C140.752 26.7129 139.366 24.8947 139.366 21.5931C139.366 18.2914 140.717 16.5705 142.866 16.5705C145.015 16.5705 146.3 18.2914 146.3 21.5931C146.3 24.8947 144.879 26.7129 142.866 26.7129Z" fill="black"/>
<path d="M162.384 12.607C160.04 12.607 158.553 14.4914 158.089 15.4492H157.992C157.992 15.1533 157.859 13.3351 157.762 12.973H153.732V30.3144H158.42V20.1408C158.42 18.6535 160.371 16.5705 162.088 16.5705C162.781 16.5705 163.178 16.6717 163.509 16.8041V12.7355C163.217 12.6615 162.843 12.607 162.384 12.607Z" fill="black"/>
</g>
<defs>
<clipPath id="clip0_2003_998">
<rect width="163.509" height="38" fill="white"/>
</clipPath>
</defs>
</svg>
